<?xml version="1.0" encoding="UTF-8"?>
<svg width="146px" height="24px" viewBox="0 0 146 24" version="1.1" xmlns="http://www.w3.org/2000/svg" xmlns:xlink="http://www.w3.org/1999/xlink">
    <!-- Generator: Sketch 48.2 (47327) - http://www.bohemiancoding.com/sketch -->
    <title>CIMB Clicks logo</title>
    <desc>Created with Sketch.</desc>
    <defs></defs>
    <g id="201_Promotion-Page-Desktop" stroke="none" stroke-width="1" fill="none" fill-rule="evenodd" transform="translate(-40.000000, -40.000000)">
        <g id="Group-6" transform="translate(40.000000, 40.000000)">
            <g id="CIMB-Clicks-logo">
                <path d="M104.012834,11.0768631 C105.012829,8.91519649 106.879486,5.4377328 108.346146,3.19550718 C108.986143,2.21537262 109.62614,1.11439956 110.586135,0.429648024 C110.999467,0.134265007 111.506131,-0.0671325037 112.012795,0.0402795022 C112.292794,0.107412006 112.546126,0.241677013 112.772791,0.429648024 C113.452788,0.980134554 112.639459,2.01397511 112.31946,2.56446164 C111.799463,3.42375769 111.199466,4.22934773 110.666135,5.08864378 C109.346141,7.2368839 108.052814,9.42540352 106.919486,11.7213351 C106.306156,12.9699997 105.719492,14.2589438 105.212828,15.5613144 C105.012829,16.0715214 103.759501,18.8105275 104.199499,19.065631 C104.719497,19.3744406 105.519493,18.3406 105.852825,18.045217 C106.132823,17.80354 106.732821,17.2664799 107.132819,17.4141715 C108.039481,17.7632605 106.946153,19.3610141 106.666154,19.8040886 C105.892825,21.0661797 104.826163,22.2208587 103.332837,22.2745647 C102.07951,22.3148442 101.039515,21.3347097 100.906182,19.9652066 C100.826182,19.119337 100.972848,18.2466145 101.172847,17.4141715 C101.692845,15.1450928 102.879506,13.1176912 104.012834,11.0768631 Z M99.8795201,17.1187884 C99.8795201,17.2799064 99.8395203,17.454451 99.7595207,17.6289955 C99.3861891,18.4614385 98.2528612,18.8373805 97.546198,19.3073081 C96.359537,20.0860451 95.1328762,20.8245026 93.8528824,21.4421217 C91.6662262,22.5028152 89.6795691,23.6843473 86.2395856,22.1268732 C83.6262649,20.9319146 83.1596004,17.669275 84.4129277,14.2589438 C85.4795893,11.3319666 87.546246,8.76750498 89.9995676,6.55213236 C92.4662224,4.32333324 95.1595428,2.21537262 97.1195334,2.00054861 C97.8261966,1.93341611 98.586193,2.02740161 99.1595236,2.53760864 C100.279518,3.54459619 100.132852,5.4780123 99.5328551,6.75352987 C99.1728568,7.53226691 98.7461922,8.04247394 97.9328628,8.16331245 C97.2395328,8.27072445 96.3995368,8.02904744 96.5462028,7.07576589 C96.6262024,6.53870586 97.2261995,5.5048653 96.8662012,4.99465827 C96.3728703,4.28305373 94.5462124,5.92108682 94.132881,6.22989634 C93.3462182,6.80723587 92.6262216,7.47856091 91.9195583,8.16331245 C90.6795643,9.34484451 89.6662358,10.8754656 88.8129066,12.4060867 C87.8262447,14.1783848 86.9195824,16.2326394 86.8929158,18.3540265 C86.8929158,19.011925 86.9195824,19.7772356 87.2662474,20.3545751 C88.2129095,21.9523287 90.5995647,20.7976496 91.8395587,20.3411486 C93.0528862,19.8980741 94.2262139,19.3475876 95.3595418,18.7299685 C96.5328695,18.0854965 97.6128643,17.3067594 98.7595255,16.6220079 C99.4261889,16.2192129 99.8795201,16.5683019 99.8795201,17.1187884 Z M114.172785,3.54459619 C114.719449,5.08864378 115.346112,6.57898536 117.106104,7.04891289 C117.106104,5.62570381 116.119442,2.81956515 114.172785,3.54459619 Z M114.012786,12.2718217 L113.999452,12.2852482 C114.026119,12.5940577 113.959452,12.9297202 113.812786,13.3325152 C113.479455,14.2992233 113.106123,15.2525048 112.706125,16.1923599 C111.932796,18.0049375 111.0528,19.7772356 110.172804,21.5495337 C109.226142,21.6166662 108.93281,21.0930327 108.586145,20.6231051 C108.919477,18.7836745 109.426141,16.9710969 110.052805,15.1987988 C110.346136,14.3663558 110.599469,13.5339127 110.9328,12.7148962 C111.146133,12.1912627 111.292799,11.6004966 111.652797,11.1574221 C112.132795,10.5800826 112.852791,10.7814801 113.359455,11.2111281 C113.78612,11.5602171 113.972786,11.8958797 114.012786,12.2718217 Z M123.252741,16.1252274 C123.199408,16.2057864 123.159408,16.2863454 123.146075,16.2997719 C122.932743,16.6220079 122.652744,16.9039644 122.372745,17.1590679 C121.37275,18.0854965 120.532754,19.1730431 119.479426,20.0457656 C118.71943,20.6768111 117.786101,21.0796062 116.826105,20.7036641 C115.612778,20.2337366 114.55945,18.5688505 114.906115,16.2997719 C115.346112,13.3862212 117.639435,9.23743251 119.119428,8.00219444 C120.212756,7.08919239 121.559416,7.14289839 122.626077,8.05590044 C123.306074,8.63323997 124.199403,9.74763953 124.212737,10.6874946 C124.212737,10.9425981 124.172737,11.0902896 124.079404,11.1708486 C123.826072,11.3990991 123.279408,11.0097306 122.972742,10.7546271 C122.586078,10.4189646 122.159413,10.0161695 121.612749,10.1370081 C121.252751,10.2175671 120.839419,10.6874946 120.572754,10.9291716 C120.159423,11.3051136 119.799424,11.7079086 119.466093,12.1509832 C118.772763,13.0639852 118.252765,14.0978258 117.852767,15.1719458 C117.652768,15.6955794 116.466107,18.1123495 117.679435,18.1929085 C118.066099,18.2197615 118.412764,18.0049375 118.759429,17.884099 C119.159427,17.7364075 119.532759,17.5752895 119.94609,17.4141715 C120.532754,17.1724944 121.172751,16.8771114 121.746082,16.5414489 C122.226079,16.2594924 122.812743,15.8566974 123.439407,15.7090059 C123.506073,15.6955794 123.372741,15.9506829 123.266074,16.1252274 L123.252741,16.1252274 Z M136.58601,9.30456501 L136.639343,9.29113851 C136.852676,9.54624202 137.012675,9.93561054 136.759343,10.1907141 C136.492678,10.4458176 135.759348,10.4055381 135.439349,10.6337886 C135.079351,10.8888921 134.719353,11.1574221 134.372688,11.4125256 C133.666024,11.9227327 132.972694,12.4597927 132.306031,13.0237057 C130.946037,14.1918113 129.972709,15.6552999 129.146046,17.2262004 C128.692715,18.0854965 128.359383,19.011925 128.132718,19.9517801 C128.146051,19.8846476 130.586039,19.1998961 130.866038,19.065631 C131.706034,18.662836 132.50603,18.1929085 133.306026,17.7095545 C133.759357,17.4410245 134.54602,16.6354344 135.039351,17.0113764 C135.466016,17.3201859 135.466016,17.6827015 135.266017,18.0317905 C134.799352,18.8105275 133.292693,19.5624116 132.852695,19.8712211 C131.586034,20.7707966 130.052708,21.7912107 128.372717,21.3481362 C127.492721,21.1064592 127.199389,20.3411486 126.439392,19.8040886 L126.826057,18.179482 C126.572725,18.985072 126.386059,19.8175151 126.292727,20.6768111 C126.22606,21.2541507 126.146061,22.7847717 125.239398,22.1940057 C124.692734,21.8449167 124.412736,21.3749892 124.292736,20.7305171 C124.14607,19.9920596 124.212737,19.2401756 124.292736,18.501718 C124.332736,18.0854965 124.399402,17.669275 124.439402,17.2530534 C124.719401,14.7825773 125.919395,12.3523807 126.772724,10.0295961 C128.146051,7.41142841 129.252712,4.39046574 131.03937,1.9065631 C132.079365,1.58432709 133.19936,2.71215315 133.132694,3.5580227 C133.039361,4.69927526 131.972699,5.90766032 131.386035,6.82066237 C130.959371,7.47856091 130.559373,8.16331245 130.132708,8.82121098 C129.759377,9.39855052 129.612711,9.98931655 129.279379,10.5935091 C128.759381,11.5467906 128.332717,12.9297202 127.986052,14.0038403 C129.172713,12.8357347 130.906038,11.5602171 132.092699,10.4726706 C132.599363,10.0161695 133.092694,9.55966852 133.679358,9.21057951 C134.172689,8.91519649 135.079351,8.45869546 135.679348,8.61981347 C135.986013,8.70037248 136.386011,9.062888 136.58601,9.30456501 Z M137.786005,12.7820287 C137.839338,12.2986747 137.97267,11.8153206 138.09267,11.3990991 C138.226003,10.9425981 138.386002,10.4995236 138.586001,10.0833021 C138.959332,9.31799151 139.452663,8.60638697 140.09266,8.02904744 C140.705991,7.46513441 141.425987,7.03548639 142.185983,6.72667687 C142.852647,6.45814685 144.119308,5.90766032 144.839304,6.16276384 C145.199302,6.29702885 146.41263,7.2503104 145.945965,7.76051743 C145.465968,8.29757746 145.092636,8.12303295 144.532639,8.36470996 C142.892647,9.0763145 139.279331,11.5333641 139.919328,14.1515318 C139.945994,14.2589438 140.09266,14.5006208 140.17266,14.5811798 C141.319321,15.7492854 145.799299,16.9845234 143.705976,19.4952791 C142.82598,20.5559726 141.359321,21.0930327 139.999327,21.7509312 C139.412663,22.0328877 138.719333,22.3819767 138.01267,22.7310657 C137.27934,23.1070078 135.906014,24.1542748 135.132684,23.3218318 C134.50602,22.6505067 135.719348,22.0731672 136.172679,21.7912107 C136.812676,21.3749892 137.466006,20.9856207 138.09267,20.5559726 C139.345997,19.7101031 140.545991,18.716542 141.359321,17.4141715 C141.465987,17.2530534 138.426002,15.0376808 138.146003,14.6348858 C137.772671,14.0978258 137.719338,13.4265007 137.799338,12.7686022 L137.786005,12.7820287 Z" id="Combined-Shape" fill="#ED1C24"></path>
                <path d="M15.3465929,17.830393 C14.1332654,18.8105275 12.6532725,19.3341611 11.09328,19.3341611 C7.31996483,19.3341611 4.37331232,16.2997719 4.37331232,12.4329397 C4.37331232,8.56610747 7.30663156,5.5317183 11.09328,5.5317183 C12.6532725,5.5317183 14.1199322,6.05535183 15.3465929,7.03548639 L15.399926,7.07576589 L18.319912,4.13536223 L18.2532456,4.06822972 C16.2532552,2.33621113 13.7199341,1.36950308 11.09328,1.36950308 C4.97330944,1.36950308 0,6.32388185 0,12.4060867 C0,18.4882915 4.97330944,23.4426703 11.09328,23.4426703 C13.7199341,23.4426703 16.2532552,22.4893887 18.2532456,20.7573701 L18.319912,20.6902376 L15.399926,17.7632605 L15.3465929,17.80354 L15.3465929,17.830393 Z M22.2665597,22.8519043 L26.4665395,22.8519043 L26.4665395,1.98712211 L22.2665597,1.98712211 L22.2665597,22.8519043 Z M42.9864601,15.3196373 C42.8264609,15.0511073 35.6664953,1.94684261 35.6664953,1.94684261 L31.5731816,1.94684261 L31.5731816,22.8116248 L35.7464949,22.8116248 C35.7464949,22.8116248 35.7464949,10.9828776 35.7464949,10.3518321 C36.0664934,10.9023186 42.9731269,22.9861693 42.9731269,22.9861693 C42.9731269,22.9861693 49.8530938,10.9023186 50.159759,10.3652586 C50.159759,10.9828776 50.159759,22.8250513 50.159759,22.8250513 L54.3464055,22.8250513 L54.3464055,1.96026911 L50.2530919,1.96026911 C50.2530919,1.96026911 43.1197928,15.0511073 42.9731269,15.3330638 L42.9864601,15.3196373 Z M71.599656,12.1644097 C72.5196516,11.6542026 74.026311,10.2309936 74.026311,7.89478243 C74.026311,4.25620073 71.5596562,2.00054861 67.5996752,2.00054861 L59.2663819,2.00054861 L59.2663819,22.8653308 L67.9463402,22.8653308 C71.8796546,22.8653308 74.3196429,20.5559726 74.3196429,16.8234054 C74.3196429,14.0172668 72.6929841,12.7283227 71.599656,12.1778362 L71.599656,12.1644097 Z M63.4396952,5.77339532 C63.5996944,5.77339532 67.2796767,5.77339532 67.2796767,5.77339532 C68.8930023,5.77339532 69.8529977,6.63269136 69.8529977,8.06932694 C69.8529977,9.50596252 68.8930023,10.3652586 67.2796767,10.3652586 C67.2796767,10.3652586 63.5996944,10.3652586 63.4396952,10.3652586 L63.4396952,5.77339532 Z M67.5330089,19.065631 C67.5330089,19.065631 63.5996944,19.065631 63.4396952,19.065631 L63.4396952,14.1649583 C63.5996944,14.1649583 67.5330089,14.1649583 67.5330089,14.1649583 C69.4396664,14.1649583 70.1329964,15.4270493 70.1329964,16.6085814 C70.1329964,17.80354 69.4529996,19.0790575 67.5330089,19.0790575 L67.5330089,19.065631 Z" id="Shape" fill="#790008" fill-rule="nonzero"></path>
            </g>
        </g>
    </g>
</svg>